<svg width="25" height="25" viewBox="0 0 15 15" fill="none" xmlns="http://www.w3.org/2000/svg">
<path d="M7.5 1.2749C4.0625 1.2749 1.25 4.08115 1.25 7.53741C1.25 10.6624 3.5375 13.2562 6.525 13.7249V9.34991H4.9375V7.53741H6.525V6.15615C6.525 4.5874 7.45625 3.7249 8.8875 3.7249C9.56875 3.7249 10.2812 3.84365 10.2812 3.84365V5.3874H9.49375C8.71875 5.3874 8.475 5.86865 8.475 6.36241V7.53741H10.2125L9.93125 9.34991H8.475V13.7249C9.94775 13.4923 11.2889 12.7409 12.2562 11.6062C13.2235 10.4715 13.7534 9.02841 13.75 7.53741C13.75 4.08115 10.9375 1.2749 7.5 1.2749Z" fill="black"/>
</svg>
