<svg width="60" height="60" viewBox="0 0 40 40" fill="none" xmlns="http://www.w3.org/2000/svg">
<path d="M16 14.6667V10.3433L15.286 9.62933C14.5358 8.87925 13.5185 8.45786 12.4576 8.45786C11.3968 8.45786 10.3794 8.87925 9.6293 9.62933C8.87922 10.3795 8.45782 11.3968 8.45782 12.4577C8.45782 13.5185 8.87922 14.5359 9.6293 15.286L13.4 19.0573C14.1501 19.8074 15.1675 20.2288 16.2283 20.2288C17.2891 20.2288 18.3065 19.8074 19.0566 19.0573C19.1859 18.9198 19.3055 18.7734 19.4146 18.6193C18.4662 18.479 17.5998 18.0028 16.9731 17.2773C16.3463 16.5518 16.001 15.6254 16 14.6667Z" fill="white"/>
<path d="M16.2287 21.226C15.5725 21.227 14.9226 21.0983 14.3162 20.8474C13.7099 20.5965 13.159 20.2283 12.6954 19.764L8.92403 15.9927C8.01701 15.0491 7.51615 13.7874 7.52899 12.4787C7.54183 11.1699 8.06735 9.9183 8.99271 8.99268C9.91808 8.06705 11.1695 7.54118 12.4783 7.52797C13.7871 7.51475 15.0488 8.01526 15.9927 8.92201L16.7074 9.63601C16.8002 9.72891 16.8738 9.8392 16.9241 9.96056C16.9743 10.0819 17.0001 10.212 17 10.3433V14.6667C17.0037 15.3847 17.2636 16.0779 17.7331 16.6212C18.2026 17.1645 18.8508 17.5223 19.5607 17.63C19.7323 17.6552 19.8945 17.7246 20.0312 17.8314C20.1679 17.9382 20.2745 18.0787 20.3405 18.2392C20.4065 18.3996 20.4296 18.5745 20.4075 18.7466C20.3855 18.9187 20.319 19.082 20.2147 19.2207C20.0781 19.4125 19.9277 19.594 19.7647 19.764C19.3006 20.2285 18.7493 20.5968 18.1425 20.8477C17.5357 21.0986 16.8853 21.2272 16.2287 21.226ZM12.458 9.45868C11.8649 9.4588 11.2851 9.63475 10.7919 9.96427C10.2988 10.2938 9.91436 10.7621 9.68726 11.3101C9.46017 11.858 9.4006 12.4609 9.51607 13.0427C9.63154 13.6245 9.91688 14.159 10.336 14.5787L14.1074 18.35C14.5384 18.7796 15.0896 19.0683 15.6882 19.1781C16.2868 19.2878 16.9046 19.2134 17.46 18.9647C16.7139 18.5216 16.0951 17.8928 15.664 17.1396C15.2329 16.3865 15.0042 15.5345 15 14.6667V10.7573L14.5787 10.336C14.3004 10.0573 13.9698 9.83634 13.6059 9.68578C13.242 9.53522 12.8519 9.45804 12.458 9.45868Z" fill="black"/>
<path d="M30.3707 24.714L26.6 20.9427C25.8499 20.1926 24.8325 19.7712 23.7717 19.7712C22.7108 19.7712 21.6935 20.1926 20.9433 20.9427C20.814 21.0802 20.6944 21.2266 20.5853 21.3807C21.5337 21.5209 22.4002 21.9972 23.0269 22.7227C23.6536 23.4482 23.999 24.3746 24 25.3333V29.6567L24.714 30.3707C25.4662 31.1107 26.4804 31.5236 27.5356 31.5193C28.5908 31.515 29.6016 31.0939 30.3477 30.3477C31.0939 29.6016 31.515 28.5908 31.5193 27.5356C31.5236 26.4804 31.1107 25.4662 30.3707 24.714Z" fill="white"/>
<path d="M27.542 32.542C26.8854 32.5432 26.235 32.4142 25.6285 32.1625C25.022 31.9107 24.4715 31.5412 24.0087 31.0753L23.294 30.3613C23.2012 30.2684 23.1275 30.1582 23.0773 30.0368C23.0271 29.9154 23.0013 29.7854 23.0014 29.654V25.3333C22.9977 24.6153 22.7377 23.9221 22.2682 23.3788C21.7987 22.8355 21.1506 22.4777 20.4407 22.37C20.269 22.3448 20.1069 22.2755 19.9702 22.1687C19.8334 22.0618 19.7268 21.9213 19.6609 21.7609C19.5949 21.6004 19.5718 21.4255 19.5939 21.2534C19.6159 21.0814 19.6824 20.918 19.7867 20.7793C19.9233 20.5876 20.0737 20.406 20.2367 20.236C21.1752 19.2997 22.4467 18.7739 23.7724 18.7739C25.098 18.7739 26.3696 19.2997 27.308 20.236L31.0794 24.0073C31.7777 24.7066 32.2532 25.5971 32.4458 26.5664C32.6384 27.5358 32.5393 28.5404 32.1613 29.4535C31.7832 30.3666 31.143 31.1472 30.3216 31.6966C29.5001 32.2461 28.5343 32.5398 27.546 32.5407L27.542 32.542ZM25 29.2427L25.4214 29.6633C25.9839 30.2263 26.747 30.5428 27.5428 30.5431C27.9369 30.5432 28.3271 30.4658 28.6913 30.3151C29.0554 30.1645 29.3863 29.9435 29.665 29.665C29.9438 29.3865 30.1649 29.0558 30.3159 28.6918C30.4668 28.3278 30.5446 27.9376 30.5447 27.5435C30.5449 27.1495 30.4674 26.7592 30.3168 26.3951C30.1661 26.031 29.9452 25.7001 29.6667 25.4213L25.8954 21.65C25.4645 21.22 24.9133 20.931 24.3146 20.8213C23.7159 20.7115 23.098 20.7862 22.5427 21.0353C23.2884 21.4788 23.9066 22.1077 24.3372 22.8608C24.7678 23.614 24.9962 24.4658 25 25.3333V29.2427Z" fill="black"/>
<path d="M19.0573 20.9427C18.9198 20.8134 18.7734 20.6937 18.6193 20.5847C18.4792 21.5332 18.003 22.3998 17.2775 23.0267C16.552 23.6535 15.6255 23.9989 14.6667 24H10.3433L9.62935 24.714C8.88929 25.4662 8.47645 26.4804 8.48075 27.5356C8.48504 28.5908 8.90613 29.6016 9.65229 30.3477C10.3984 31.0939 11.4092 31.515 12.4644 31.5193C13.5196 31.5236 14.5338 31.1107 15.286 30.3707L19.0573 26.6C19.4289 26.2285 19.7236 25.7876 19.9246 25.3022C20.1257 24.8169 20.2292 24.2967 20.2292 23.7713C20.2292 23.246 20.1257 22.7258 19.9246 22.2404C19.7236 21.7551 19.4289 21.3141 19.0573 20.9427Z" fill="white"/>
<path d="M12.458 32.542C11.4697 32.5411 10.5039 32.2474 9.68246 31.698C8.86102 31.1485 8.22084 30.3679 7.84276 29.4548C7.46468 28.5417 7.36568 27.5371 7.55824 26.5678C7.7508 25.5984 8.2263 24.7079 8.92467 24.0087L9.63867 23.294C9.73158 23.2012 9.84186 23.1275 9.96323 23.0773C10.0846 23.0271 10.2147 23.0013 10.346 23.0013H14.6667C15.3847 22.9978 16.0778 22.7379 16.6211 22.2683C17.1643 21.7988 17.5219 21.1506 17.6293 20.4407C17.6546 20.2691 17.7241 20.107 17.8309 19.9704C17.9378 19.8337 18.0783 19.7272 18.2387 19.6613C18.3992 19.5954 18.574 19.5724 18.746 19.5945C18.9181 19.6166 19.0814 19.683 19.22 19.7873C19.4119 19.9232 19.5935 20.0729 19.7633 20.2353C20.6996 21.1737 21.2254 22.4451 21.2254 23.7707C21.2254 25.0962 20.6996 26.3676 19.7633 27.306L15.992 31.0773C15.529 31.5429 14.9783 31.9121 14.3717 32.1635C13.7651 32.4149 13.1146 32.5436 12.458 32.542ZM10.7573 25L10.336 25.4213C9.77304 25.9839 9.45663 26.7472 9.45638 27.5431C9.45613 28.339 9.77206 29.1024 10.3347 29.6653C10.8973 30.2283 11.6605 30.5447 12.4564 30.545C13.2523 30.5452 14.0157 30.2293 14.5787 29.6667L18.35 25.8953C18.7798 25.4644 19.0687 24.9132 19.1785 24.3145C19.2882 23.7159 19.2137 23.098 18.9647 22.5427C18.5212 23.2883 17.8923 23.9066 17.1392 24.3372C16.386 24.7678 15.5342 24.9961 14.6667 25H10.7573Z" fill="black"/>
<path d="M27.6625 15.2422H31.9858L32.6998 14.5282C33.4499 13.778 33.8713 12.7606 33.8713 11.6998C33.8713 10.639 33.4499 9.62163 32.6998 8.87149C31.9496 8.1214 30.9323 7.70001 29.8715 7.70001C28.8106 7.70001 27.7933 8.1214 27.0431 8.87149L23.2718 12.6422C22.9003 13.0136 22.6056 13.4546 22.4045 13.9399C22.2035 14.4253 22.1 14.9455 22.1 15.4708C22.1 15.9962 22.2035 16.5164 22.4045 17.0017C22.6056 17.4871 22.9003 17.928 23.2718 18.2995C23.4092 18.4288 23.5556 18.5482 23.7098 18.6568C23.8501 17.7084 24.3263 16.842 25.0518 16.2152C25.7773 15.5885 26.7037 15.2432 27.6625 15.2422Z" fill="white"/>
<path d="M21.3807 20.4153C21.1643 20.4153 20.9537 20.3452 20.7807 20.2153C20.5888 20.0795 20.4072 19.9298 20.2373 19.7673C19.3009 18.8286 18.7751 17.5569 18.7751 16.231C18.7751 14.9051 19.3009 13.6334 20.2373 12.6947L24.0087 8.92334C24.469 8.44214 25.0208 8.05775 25.6317 7.79272C26.2427 7.5277 26.9004 7.38738 27.5662 7.38001C28.2321 7.37263 28.8928 7.49835 29.5094 7.74978C30.1261 8.00121 30.6863 8.37328 31.1572 8.84417C31.628 9.31505 32.0001 9.87525 32.2515 10.4919C32.503 11.1085 32.6287 11.7692 32.6213 12.4351C32.6139 13.101 32.4736 13.7587 32.2086 14.3696C31.9436 14.9805 31.5592 15.5323 31.078 15.9927L30.364 16.7073C30.2711 16.8002 30.1608 16.8738 30.0394 16.924C29.9181 16.9742 29.788 17.0001 29.6567 17H25.3333C24.6153 17.0035 23.9222 17.2635 23.3789 17.733C22.8357 18.2025 22.4781 18.8507 22.3707 19.5607C22.3358 19.7983 22.2165 20.0154 22.0347 20.1723C21.853 20.3292 21.6208 20.4155 21.3807 20.4153ZM27.542 9.45867C27.1483 9.45768 26.7584 9.53444 26.3944 9.68454C26.0305 9.83464 25.6998 10.0551 25.4213 10.3333L21.65 14.1047C21.2202 14.5356 20.9313 15.0868 20.8215 15.6855C20.7118 16.2841 20.7863 16.902 21.0353 17.4573C21.4788 16.7117 22.1076 16.0934 22.8608 15.6628C23.614 15.2322 24.4658 15.0039 25.3333 15H29.2427L29.664 14.5787C30.0831 14.159 30.3685 13.6245 30.4839 13.0427C30.5994 12.4609 30.5398 11.858 30.3127 11.3101C30.0857 10.7621 29.7012 10.2938 29.2081 9.96427C28.7149 9.63474 28.1351 9.4588 27.542 9.45867Z" fill="black"/>
<path d="M20.9426 13.4L24 10.3433V9.33334C24 8.27248 23.5785 7.25506 22.8284 6.50492C22.0783 5.75477 21.0608 5.33334 20 5.33334C18.9391 5.33334 17.9217 5.75477 17.1715 6.50492C16.4214 7.25506 16 8.27248 16 9.33334V14.6667C15.996 15.2424 16.1172 15.8122 16.3552 16.3364C16.5933 16.8607 16.9424 17.327 17.3785 17.7029C17.8146 18.0789 18.3272 18.3556 18.8808 18.5138C19.4344 18.672 20.0157 18.7081 20.5846 18.6193C20.0057 17.8521 19.7231 16.9017 19.7889 15.9428C19.8546 14.9839 20.2643 14.081 20.9426 13.4Z" fill="white"/>
<path d="M20 19.6667C18.6744 19.6653 17.4034 19.138 16.466 18.2007C15.5286 17.2633 15.0014 15.9923 15 14.6667V9.33334C15 8.00726 15.5268 6.73549 16.4645 5.79781C17.4021 4.86013 18.6739 4.33334 20 4.33334C21.3261 4.33334 22.5979 4.86013 23.5355 5.79781C24.4732 6.73549 25 8.00726 25 9.33334V10.3433C24.9999 10.6084 24.8947 10.8625 24.7073 11.05L21.65 14.1073C21.1448 14.6195 20.84 15.2958 20.7911 16.0135C20.7422 16.7313 20.9523 17.4427 21.3833 18.0187C21.4875 18.1574 21.5538 18.3207 21.5757 18.4928C21.5977 18.6648 21.5745 18.8396 21.5084 19C21.4424 19.1603 21.3358 19.3008 21.1991 19.4075C21.0624 19.5142 20.9003 19.5835 20.7287 19.6087C20.4875 19.6458 20.244 19.6652 20 19.6667ZM20 6.33334C19.2046 6.33423 18.4421 6.65058 17.8797 7.213C17.3172 7.77542 17.0009 8.53796 17 9.33334V14.6667C17.0006 15.2774 17.1873 15.8733 17.5352 16.3752C17.8831 16.8771 18.3757 17.2611 18.9473 17.476C18.7286 16.6355 18.7325 15.7526 18.9584 14.914C19.1843 14.0755 19.6246 13.3102 20.236 12.6933L23 9.92934V9.33334C22.9991 8.53796 22.6828 7.77542 22.1203 7.213C21.5579 6.65058 20.7954 6.33423 20 6.33334Z" fill="black"/>
<path d="M20 21.3333C19.8042 21.3349 19.6088 21.3507 19.4153 21.3807C19.9944 22.1477 20.277 23.0981 20.2113 24.0569C20.1455 25.0157 19.7357 25.9186 19.0573 26.5993L16 29.6567V30.6667C16 31.7275 16.4214 32.745 17.1716 33.4951C17.9217 34.2452 18.9391 34.6667 20 34.6667C21.0609 34.6667 22.0783 34.2452 22.8284 33.4951C23.5786 32.745 24 31.7275 24 30.6667V25.3333C24 24.2725 23.5786 23.2551 22.8284 22.5049C22.0783 21.7548 21.0609 21.3333 20 21.3333Z" fill="white"/>
<path d="M20 35.6667C18.6744 35.6653 17.4034 35.138 16.466 34.2006C15.5286 33.2633 15.0014 31.9923 15 30.6667V29.6567C15.0001 29.3916 15.1053 29.1375 15.2927 28.95L18.35 25.8927C18.8552 25.3805 19.16 24.7042 19.2089 23.9865C19.2578 23.2687 19.0477 22.5573 18.6167 21.9813C18.5125 21.8427 18.4462 21.6793 18.4243 21.5072C18.4023 21.3352 18.4255 21.1604 18.4916 21C18.5576 20.8397 18.6642 20.6992 18.8009 20.5925C18.9376 20.4858 19.0997 20.4165 19.2713 20.3913C19.9822 20.2819 20.7084 20.3279 21.3998 20.5264C22.0911 20.7248 22.7312 21.0709 23.2758 21.5407C23.8204 22.0105 24.2566 22.5929 24.5543 23.2477C24.852 23.9025 25.004 24.6141 25 25.3333V30.6667C24.9986 31.9923 24.4713 33.2633 23.534 34.2006C22.5966 35.138 21.3256 35.6653 20 35.6667ZM17 30.0707V30.6667C17 31.4623 17.3161 32.2254 17.8787 32.788C18.4413 33.3506 19.2044 33.6667 20 33.6667C20.7956 33.6667 21.5587 33.3506 22.1213 32.788C22.6839 32.2254 23 31.4623 23 30.6667V25.3333C22.9994 24.7226 22.8127 24.1267 22.4648 23.6248C22.1169 23.1229 21.6243 22.7389 21.0527 22.524C21.2714 23.3645 21.2675 24.2474 21.0416 25.086C20.8157 25.9245 20.3754 26.6898 19.764 27.3067L17 30.0707Z" fill="black"/>
<path d="M13.4 19.0573L10.3433 16H9.33331C8.27245 16 7.25503 16.4214 6.50489 17.1716C5.75474 17.9217 5.33331 18.9391 5.33331 20C5.33331 21.0609 5.75474 22.0783 6.50489 22.8284C7.25503 23.5786 8.27245 24 9.33331 24H14.6666C15.2424 24.0039 15.8122 23.8826 16.3365 23.6445C16.8607 23.4064 17.327 23.0572 17.7029 22.621C18.0789 22.1849 18.3555 21.6723 18.5138 21.1186C18.672 20.565 18.708 19.9836 18.6193 19.4147C17.8523 19.9941 16.9019 20.2771 15.9429 20.2114C14.9838 20.1458 14.0808 19.7359 13.4 19.0573Z" fill="white"/>
<path d="M14.6666 25H9.33331C8.00723 25 6.73546 24.4732 5.79778 23.5355C4.8601 22.5979 4.33331 21.3261 4.33331 20C4.33331 18.6739 4.8601 17.4021 5.79778 16.4645C6.73546 15.5268 8.00723 15 9.33331 15H10.3433C10.6083 15.0001 10.8625 15.1053 11.05 15.2927L14.1073 18.35C14.6194 18.8552 15.2958 19.16 16.0135 19.2089C16.7312 19.2578 17.4427 19.0477 18.0186 18.6167C18.1573 18.5125 18.3207 18.4462 18.4927 18.4243C18.6648 18.4023 18.8396 18.4255 18.9999 18.4916C19.1603 18.5576 19.3007 18.6642 19.4075 18.8009C19.5142 18.9376 19.5835 19.0997 19.6086 19.2713C19.646 19.5124 19.6654 19.756 19.6666 20C19.6652 21.3256 19.138 22.5966 18.2006 23.534C17.2632 24.4713 15.9923 24.9986 14.6666 25ZM9.33331 17C8.53766 17 7.7746 17.3161 7.21199 17.8787C6.64938 18.4413 6.33331 19.2044 6.33331 20C6.33331 20.7956 6.64938 21.5587 7.21199 22.1213C7.7746 22.6839 8.53766 23 9.33331 23H14.6666C15.2773 22.9994 15.8733 22.8127 16.3752 22.4648C16.8771 22.1169 17.2611 21.6243 17.476 21.0527C16.6355 21.2714 15.7526 21.2675 14.914 21.0416C14.0755 20.8157 13.3101 20.3754 12.6933 19.764L9.92931 17H9.33331Z" fill="black"/>
<path d="M30.6667 16H25.3334C24.7576 15.996 24.1879 16.1172 23.6636 16.3553C23.1393 16.5933 22.6731 16.9424 22.2971 17.3785C21.9211 17.8146 21.6445 18.3272 21.4862 18.8808C21.328 19.4344 21.292 20.0158 21.3807 20.5847C22.1477 20.0056 23.0981 19.723 24.0569 19.7887C25.0157 19.8545 25.9186 20.2643 26.5994 20.9427L29.6567 24H30.6667C31.7276 24 32.745 23.5786 33.4951 22.8284C34.2453 22.0783 34.6667 21.0609 34.6667 20C34.6667 18.9391 34.2453 17.9217 33.4951 17.1716C32.745 16.4214 31.7276 16 30.6667 16Z" fill="white"/>
<path d="M30.6666 25H29.6566C29.3916 24.9999 29.1374 24.8947 28.95 24.7073L25.8926 21.65C25.3811 21.144 24.7048 20.8386 23.9869 20.7897C23.269 20.7407 22.5575 20.9514 21.982 21.3833C21.8433 21.4877 21.6799 21.5541 21.5077 21.5761C21.3356 21.5981 21.1607 21.575 21.0002 21.5089C20.8398 21.4429 20.6992 21.3362 20.5925 21.1994C20.4857 21.0626 20.4164 20.9004 20.3913 20.7287C20.3539 20.4876 20.3345 20.244 20.3333 20C20.3347 18.6744 20.862 17.4034 21.7993 16.466C22.7367 15.5286 24.0077 15.0014 25.3333 15H30.6666C31.9927 15 33.2645 15.5268 34.2022 16.4645C35.1399 17.4021 35.6666 18.6739 35.6666 20C35.6666 21.3261 35.1399 22.5979 34.2022 23.5355C33.2645 24.4732 31.9927 25 30.6666 25ZM30.0706 23H30.6666C31.4623 23 32.2254 22.6839 32.788 22.1213C33.3506 21.5587 33.6666 20.7956 33.6666 20C33.6666 19.2044 33.3506 18.4413 32.788 17.8787C32.2254 17.3161 31.4623 17 30.6666 17H25.3333C24.7226 17.0006 24.1266 17.1873 23.6247 17.5352C23.1228 17.8831 22.7389 18.3757 22.524 18.9473C23.3645 18.729 24.2473 18.733 25.0858 18.9589C25.9243 19.1848 26.6896 19.6249 27.3066 20.236L30.0706 23Z" fill="black"/>
</svg>
