<svg width="117" height="40" viewBox="0 0 117 40" fill="none" xmlns="http://www.w3.org/2000/svg">
<path d="M16 14.6667V10.3433L15.286 9.62933C14.5358 8.87925 13.5185 8.45786 12.4576 8.45786C11.3968 8.45786 10.3794 8.87925 9.6293 9.62933C8.87922 10.3795 8.45782 11.3968 8.45782 12.4577C8.45782 13.5185 8.87922 14.5359 9.6293 15.286L13.4 19.0573C14.1501 19.8074 15.1675 20.2288 16.2283 20.2288C17.2891 20.2288 18.3065 19.8074 19.0566 19.0573C19.1859 18.9198 19.3055 18.7734 19.4146 18.6193C18.4662 18.479 17.5998 18.0028 16.9731 17.2773C16.3463 16.5518 16.001 15.6254 16 14.6667Z" fill="white"/>
<path d="M16.2287 21.226C15.5725 21.227 14.9226 21.0983 14.3162 20.8474C13.7099 20.5965 13.159 20.2283 12.6954 19.764L8.92403 15.9927C8.01701 15.0491 7.51615 13.7874 7.52899 12.4787C7.54183 11.1699 8.06735 9.9183 8.99271 8.99268C9.91808 8.06705 11.1695 7.54118 12.4783 7.52797C13.7871 7.51475 15.0488 8.01526 15.9927 8.92201L16.7074 9.63601C16.8002 9.72891 16.8738 9.8392 16.9241 9.96056C16.9743 10.0819 17.0001 10.212 17 10.3433V14.6667C17.0037 15.3847 17.2636 16.0779 17.7331 16.6212C18.2026 17.1645 18.8508 17.5223 19.5607 17.63C19.7323 17.6552 19.8945 17.7246 20.0312 17.8314C20.1679 17.9382 20.2745 18.0787 20.3405 18.2392C20.4065 18.3996 20.4296 18.5745 20.4075 18.7466C20.3855 18.9187 20.319 19.082 20.2147 19.2207C20.0781 19.4125 19.9277 19.594 19.7647 19.764C19.3006 20.2285 18.7493 20.5968 18.1425 20.8477C17.5357 21.0986 16.8853 21.2272 16.2287 21.226ZM12.458 9.45868C11.8649 9.4588 11.2851 9.63475 10.7919 9.96427C10.2988 10.2938 9.91436 10.7621 9.68726 11.3101C9.46017 11.858 9.4006 12.4609 9.51607 13.0427C9.63154 13.6245 9.91688 14.159 10.336 14.5787L14.1074 18.35C14.5384 18.7796 15.0896 19.0683 15.6882 19.1781C16.2868 19.2878 16.9046 19.2134 17.46 18.9647C16.7139 18.5216 16.0951 17.8928 15.664 17.1396C15.2329 16.3865 15.0042 15.5345 15 14.6667V10.7573L14.5787 10.336C14.3004 10.0573 13.9698 9.83634 13.6059 9.68578C13.242 9.53522 12.8519 9.45804 12.458 9.45868Z" fill="black"/>
<path d="M30.3707 24.714L26.6 20.9427C25.8499 20.1926 24.8325 19.7712 23.7717 19.7712C22.7108 19.7712 21.6935 20.1926 20.9433 20.9427C20.814 21.0802 20.6944 21.2266 20.5853 21.3807C21.5337 21.5209 22.4002 21.9972 23.0269 22.7227C23.6536 23.4482 23.999 24.3746 24 25.3333V29.6567L24.714 30.3707C25.4662 31.1107 26.4804 31.5236 27.5356 31.5193C28.5908 31.515 29.6016 31.0939 30.3477 30.3477C31.0939 29.6016 31.515 28.5908 31.5193 27.5356C31.5236 26.4804 31.1107 25.4662 30.3707 24.714Z" fill="white"/>
<path d="M27.542 32.542C26.8854 32.5432 26.235 32.4142 25.6285 32.1625C25.022 31.9107 24.4715 31.5412 24.0087 31.0753L23.294 30.3613C23.2012 30.2684 23.1275 30.1582 23.0773 30.0368C23.0271 29.9154 23.0013 29.7854 23.0014 29.654V25.3333C22.9977 24.6153 22.7377 23.9221 22.2682 23.3788C21.7987 22.8355 21.1506 22.4777 20.4407 22.37C20.269 22.3448 20.1069 22.2755 19.9702 22.1687C19.8334 22.0618 19.7268 21.9213 19.6609 21.7609C19.5949 21.6004 19.5718 21.4255 19.5939 21.2534C19.6159 21.0814 19.6824 20.918 19.7867 20.7793C19.9233 20.5876 20.0737 20.406 20.2367 20.236C21.1752 19.2997 22.4467 18.7739 23.7724 18.7739C25.098 18.7739 26.3696 19.2997 27.308 20.236L31.0794 24.0073C31.7777 24.7066 32.2532 25.5971 32.4458 26.5664C32.6384 27.5358 32.5393 28.5404 32.1613 29.4535C31.7832 30.3666 31.143 31.1472 30.3216 31.6966C29.5001 32.2461 28.5343 32.5398 27.546 32.5407L27.542 32.542ZM25 29.2427L25.4214 29.6633C25.9839 30.2263 26.747 30.5428 27.5428 30.5431C27.9369 30.5432 28.3271 30.4658 28.6913 30.3151C29.0554 30.1645 29.3863 29.9435 29.665 29.665C29.9438 29.3865 30.1649 29.0558 30.3159 28.6918C30.4668 28.3278 30.5446 27.9376 30.5447 27.5435C30.5449 27.1495 30.4674 26.7592 30.3168 26.3951C30.1661 26.031 29.9452 25.7001 29.6667 25.4213L25.8954 21.65C25.4645 21.22 24.9133 20.931 24.3146 20.8213C23.7159 20.7115 23.098 20.7862 22.5427 21.0353C23.2884 21.4788 23.9066 22.1077 24.3372 22.8608C24.7678 23.614 24.9962 24.4658 25 25.3333V29.2427Z" fill="black"/>
<path d="M19.0573 20.9427C18.9198 20.8134 18.7734 20.6937 18.6193 20.5847C18.4792 21.5332 18.003 22.3998 17.2775 23.0267C16.552 23.6535 15.6255 23.9989 14.6667 24H10.3433L9.62935 24.714C8.88929 25.4662 8.47645 26.4804 8.48075 27.5356C8.48504 28.5908 8.90613 29.6016 9.65229 30.3477C10.3984 31.0939 11.4092 31.515 12.4644 31.5193C13.5196 31.5236 14.5338 31.1107 15.286 30.3707L19.0573 26.6C19.4289 26.2285 19.7236 25.7876 19.9246 25.3022C20.1257 24.8169 20.2292 24.2967 20.2292 23.7713C20.2292 23.246 20.1257 22.7258 19.9246 22.2404C19.7236 21.7551 19.4289 21.3141 19.0573 20.9427Z" fill="white"/>
<path d="M12.458 32.542C11.4697 32.5411 10.5039 32.2474 9.68246 31.698C8.86102 31.1485 8.22084 30.3679 7.84276 29.4548C7.46468 28.5417 7.36568 27.5371 7.55824 26.5678C7.7508 25.5984 8.2263 24.7079 8.92467 24.0087L9.63867 23.294C9.73158 23.2012 9.84186 23.1275 9.96323 23.0773C10.0846 23.0271 10.2147 23.0013 10.346 23.0013H14.6667C15.3847 22.9978 16.0778 22.7379 16.6211 22.2683C17.1643 21.7988 17.5219 21.1506 17.6293 20.4407C17.6546 20.2691 17.7241 20.107 17.8309 19.9704C17.9378 19.8337 18.0783 19.7272 18.2387 19.6613C18.3992 19.5954 18.574 19.5724 18.746 19.5945C18.9181 19.6166 19.0814 19.683 19.22 19.7873C19.4119 19.9232 19.5935 20.0729 19.7633 20.2353C20.6996 21.1737 21.2254 22.4451 21.2254 23.7707C21.2254 25.0962 20.6996 26.3676 19.7633 27.306L15.992 31.0773C15.529 31.5429 14.9783 31.9121 14.3717 32.1635C13.7651 32.4149 13.1146 32.5436 12.458 32.542ZM10.7573 25L10.336 25.4213C9.77304 25.9839 9.45663 26.7472 9.45638 27.5431C9.45613 28.339 9.77206 29.1024 10.3347 29.6653C10.8973 30.2283 11.6605 30.5447 12.4564 30.545C13.2523 30.5452 14.0157 30.2293 14.5787 29.6667L18.35 25.8953C18.7798 25.4644 19.0687 24.9132 19.1785 24.3145C19.2882 23.7159 19.2137 23.098 18.9647 22.5427C18.5212 23.2883 17.8923 23.9066 17.1392 24.3372C16.386 24.7678 15.5342 24.9961 14.6667 25H10.7573Z" fill="black"/>
<path d="M27.6625 15.2422H31.9858L32.6998 14.5282C33.4499 13.778 33.8713 12.7606 33.8713 11.6998C33.8713 10.639 33.4499 9.62163 32.6998 8.87149C31.9496 8.1214 30.9323 7.70001 29.8715 7.70001C28.8106 7.70001 27.7933 8.1214 27.0431 8.87149L23.2718 12.6422C22.9003 13.0136 22.6056 13.4546 22.4045 13.9399C22.2035 14.4253 22.1 14.9455 22.1 15.4708C22.1 15.9962 22.2035 16.5164 22.4045 17.0017C22.6056 17.4871 22.9003 17.928 23.2718 18.2995C23.4092 18.4288 23.5556 18.5482 23.7098 18.6568C23.8501 17.7084 24.3263 16.842 25.0518 16.2152C25.7773 15.5885 26.7037 15.2432 27.6625 15.2422Z" fill="white"/>
<path d="M21.3807 20.4153C21.1643 20.4153 20.9537 20.3452 20.7807 20.2153C20.5888 20.0795 20.4072 19.9298 20.2373 19.7673C19.3009 18.8286 18.7751 17.5569 18.7751 16.231C18.7751 14.9051 19.3009 13.6334 20.2373 12.6947L24.0087 8.92334C24.469 8.44214 25.0208 8.05775 25.6317 7.79272C26.2427 7.5277 26.9004 7.38738 27.5662 7.38001C28.2321 7.37263 28.8928 7.49835 29.5094 7.74978C30.1261 8.00121 30.6863 8.37328 31.1572 8.84417C31.628 9.31505 32.0001 9.87525 32.2515 10.4919C32.503 11.1085 32.6287 11.7692 32.6213 12.4351C32.6139 13.101 32.4736 13.7587 32.2086 14.3696C31.9436 14.9805 31.5592 15.5323 31.078 15.9927L30.364 16.7073C30.2711 16.8002 30.1608 16.8738 30.0394 16.924C29.9181 16.9742 29.788 17.0001 29.6567 17H25.3333C24.6153 17.0035 23.9222 17.2635 23.3789 17.733C22.8357 18.2025 22.4781 18.8507 22.3707 19.5607C22.3358 19.7983 22.2165 20.0154 22.0347 20.1723C21.853 20.3292 21.6208 20.4155 21.3807 20.4153ZM27.542 9.45867C27.1483 9.45768 26.7584 9.53444 26.3944 9.68454C26.0305 9.83464 25.6998 10.0551 25.4213 10.3333L21.65 14.1047C21.2202 14.5356 20.9313 15.0868 20.8215 15.6855C20.7118 16.2841 20.7863 16.902 21.0353 17.4573C21.4788 16.7117 22.1076 16.0934 22.8608 15.6628C23.614 15.2322 24.4658 15.0039 25.3333 15H29.2427L29.664 14.5787C30.0831 14.159 30.3685 13.6245 30.4839 13.0427C30.5994 12.4609 30.5398 11.858 30.3127 11.3101C30.0857 10.7621 29.7012 10.2938 29.2081 9.96427C28.7149 9.63474 28.1351 9.4588 27.542 9.45867Z" fill="black"/>
<path d="M20.9426 13.4L24 10.3433V9.33334C24 8.27248 23.5785 7.25506 22.8284 6.50492C22.0783 5.75477 21.0608 5.33334 20 5.33334C18.9391 5.33334 17.9217 5.75477 17.1715 6.50492C16.4214 7.25506 16 8.27248 16 9.33334V14.6667C15.996 15.2424 16.1172 15.8122 16.3552 16.3364C16.5933 16.8607 16.9424 17.327 17.3785 17.7029C17.8146 18.0789 18.3272 18.3556 18.8808 18.5138C19.4344 18.672 20.0157 18.7081 20.5846 18.6193C20.0057 17.8521 19.7231 16.9017 19.7889 15.9428C19.8546 14.9839 20.2643 14.081 20.9426 13.4Z" fill="white"/>
<path d="M20 19.6667C18.6744 19.6653 17.4034 19.138 16.466 18.2007C15.5286 17.2633 15.0014 15.9923 15 14.6667V9.33334C15 8.00726 15.5268 6.73549 16.4645 5.79781C17.4021 4.86013 18.6739 4.33334 20 4.33334C21.3261 4.33334 22.5979 4.86013 23.5355 5.79781C24.4732 6.73549 25 8.00726 25 9.33334V10.3433C24.9999 10.6084 24.8947 10.8625 24.7073 11.05L21.65 14.1073C21.1448 14.6195 20.84 15.2958 20.7911 16.0135C20.7422 16.7313 20.9523 17.4427 21.3833 18.0187C21.4875 18.1574 21.5538 18.3207 21.5757 18.4928C21.5977 18.6648 21.5745 18.8396 21.5084 19C21.4424 19.1603 21.3358 19.3008 21.1991 19.4075C21.0624 19.5142 20.9003 19.5835 20.7287 19.6087C20.4875 19.6458 20.244 19.6652 20 19.6667ZM20 6.33334C19.2046 6.33423 18.4421 6.65058 17.8797 7.213C17.3172 7.77542 17.0009 8.53796 17 9.33334V14.6667C17.0006 15.2774 17.1873 15.8733 17.5352 16.3752C17.8831 16.8771 18.3757 17.2611 18.9473 17.476C18.7286 16.6355 18.7325 15.7526 18.9584 14.914C19.1843 14.0755 19.6246 13.3102 20.236 12.6933L23 9.92934V9.33334C22.9991 8.53796 22.6828 7.77542 22.1203 7.213C21.5579 6.65058 20.7954 6.33423 20 6.33334Z" fill="black"/>
<path d="M20 21.3333C19.8042 21.3349 19.6088 21.3507 19.4153 21.3807C19.9944 22.1477 20.277 23.0981 20.2113 24.0569C20.1455 25.0157 19.7357 25.9186 19.0573 26.5993L16 29.6567V30.6667C16 31.7275 16.4214 32.745 17.1716 33.4951C17.9217 34.2452 18.9391 34.6667 20 34.6667C21.0609 34.6667 22.0783 34.2452 22.8284 33.4951C23.5786 32.745 24 31.7275 24 30.6667V25.3333C24 24.2725 23.5786 23.2551 22.8284 22.5049C22.0783 21.7548 21.0609 21.3333 20 21.3333Z" fill="white"/>
<path d="M20 35.6667C18.6744 35.6653 17.4034 35.138 16.466 34.2006C15.5286 33.2633 15.0014 31.9923 15 30.6667V29.6567C15.0001 29.3916 15.1053 29.1375 15.2927 28.95L18.35 25.8927C18.8552 25.3805 19.16 24.7042 19.2089 23.9865C19.2578 23.2687 19.0477 22.5573 18.6167 21.9813C18.5125 21.8427 18.4462 21.6793 18.4243 21.5072C18.4023 21.3352 18.4255 21.1604 18.4916 21C18.5576 20.8397 18.6642 20.6992 18.8009 20.5925C18.9376 20.4858 19.0997 20.4165 19.2713 20.3913C19.9822 20.2819 20.7084 20.3279 21.3998 20.5264C22.0911 20.7248 22.7312 21.0709 23.2758 21.5407C23.8204 22.0105 24.2566 22.5929 24.5543 23.2477C24.852 23.9025 25.004 24.6141 25 25.3333V30.6667C24.9986 31.9923 24.4713 33.2633 23.534 34.2006C22.5966 35.138 21.3256 35.6653 20 35.6667ZM17 30.0707V30.6667C17 31.4623 17.3161 32.2254 17.8787 32.788C18.4413 33.3506 19.2044 33.6667 20 33.6667C20.7956 33.6667 21.5587 33.3506 22.1213 32.788C22.6839 32.2254 23 31.4623 23 30.6667V25.3333C22.9994 24.7226 22.8127 24.1267 22.4648 23.6248C22.1169 23.1229 21.6243 22.7389 21.0527 22.524C21.2714 23.3645 21.2675 24.2474 21.0416 25.086C20.8157 25.9245 20.3754 26.6898 19.764 27.3067L17 30.0707Z" fill="black"/>
<path d="M13.4 19.0573L10.3433 16H9.33331C8.27245 16 7.25503 16.4214 6.50489 17.1716C5.75474 17.9217 5.33331 18.9391 5.33331 20C5.33331 21.0609 5.75474 22.0783 6.50489 22.8284C7.25503 23.5786 8.27245 24 9.33331 24H14.6666C15.2424 24.0039 15.8122 23.8826 16.3365 23.6445C16.8607 23.4064 17.327 23.0572 17.7029 22.621C18.0789 22.1849 18.3555 21.6723 18.5138 21.1186C18.672 20.565 18.708 19.9836 18.6193 19.4147C17.8523 19.9941 16.9019 20.2771 15.9429 20.2114C14.9838 20.1458 14.0808 19.7359 13.4 19.0573Z" fill="white"/>
<path d="M14.6666 25H9.33331C8.00723 25 6.73546 24.4732 5.79778 23.5355C4.8601 22.5979 4.33331 21.3261 4.33331 20C4.33331 18.6739 4.8601 17.4021 5.79778 16.4645C6.73546 15.5268 8.00723 15 9.33331 15H10.3433C10.6083 15.0001 10.8625 15.1053 11.05 15.2927L14.1073 18.35C14.6194 18.8552 15.2958 19.16 16.0135 19.2089C16.7312 19.2578 17.4427 19.0477 18.0186 18.6167C18.1573 18.5125 18.3207 18.4462 18.4927 18.4243C18.6648 18.4023 18.8396 18.4255 18.9999 18.4916C19.1603 18.5576 19.3007 18.6642 19.4075 18.8009C19.5142 18.9376 19.5835 19.0997 19.6086 19.2713C19.646 19.5124 19.6654 19.756 19.6666 20C19.6652 21.3256 19.138 22.5966 18.2006 23.534C17.2632 24.4713 15.9923 24.9986 14.6666 25ZM9.33331 17C8.53766 17 7.7746 17.3161 7.21199 17.8787C6.64938 18.4413 6.33331 19.2044 6.33331 20C6.33331 20.7956 6.64938 21.5587 7.21199 22.1213C7.7746 22.6839 8.53766 23 9.33331 23H14.6666C15.2773 22.9994 15.8733 22.8127 16.3752 22.4648C16.8771 22.1169 17.2611 21.6243 17.476 21.0527C16.6355 21.2714 15.7526 21.2675 14.914 21.0416C14.0755 20.8157 13.3101 20.3754 12.6933 19.764L9.92931 17H9.33331Z" fill="black"/>
<path d="M30.6667 16H25.3334C24.7576 15.996 24.1879 16.1172 23.6636 16.3553C23.1393 16.5933 22.6731 16.9424 22.2971 17.3785C21.9211 17.8146 21.6445 18.3272 21.4862 18.8808C21.328 19.4344 21.292 20.0158 21.3807 20.5847C22.1477 20.0056 23.0981 19.723 24.0569 19.7887C25.0157 19.8545 25.9186 20.2643 26.5994 20.9427L29.6567 24H30.6667C31.7276 24 32.745 23.5786 33.4951 22.8284C34.2453 22.0783 34.6667 21.0609 34.6667 20C34.6667 18.9391 34.2453 17.9217 33.4951 17.1716C32.745 16.4214 31.7276 16 30.6667 16Z" fill="white"/>
<path d="M30.6666 25H29.6566C29.3916 24.9999 29.1374 24.8947 28.95 24.7073L25.8926 21.65C25.3811 21.144 24.7048 20.8386 23.9869 20.7897C23.269 20.7407 22.5575 20.9514 21.982 21.3833C21.8433 21.4877 21.6799 21.5541 21.5077 21.5761C21.3356 21.5981 21.1607 21.575 21.0002 21.5089C20.8398 21.4429 20.6992 21.3362 20.5925 21.1994C20.4857 21.0626 20.4164 20.9004 20.3913 20.7287C20.3539 20.4876 20.3345 20.244 20.3333 20C20.3347 18.6744 20.862 17.4034 21.7993 16.466C22.7367 15.5286 24.0077 15.0014 25.3333 15H30.6666C31.9927 15 33.2645 15.5268 34.2022 16.4645C35.1399 17.4021 35.6666 18.6739 35.6666 20C35.6666 21.3261 35.1399 22.5979 34.2022 23.5355C33.2645 24.4732 31.9927 25 30.6666 25ZM30.0706 23H30.6666C31.4623 23 32.2254 22.6839 32.788 22.1213C33.3506 21.5587 33.6666 20.7956 33.6666 20C33.6666 19.2044 33.3506 18.4413 32.788 17.8787C32.2254 17.3161 31.4623 17 30.6666 17H25.3333C24.7226 17.0006 24.1266 17.1873 23.6247 17.5352C23.1228 17.8831 22.7389 18.3757 22.524 18.9473C23.3645 18.729 24.2473 18.733 25.0858 18.9589C25.9243 19.1848 26.6896 19.6249 27.3066 20.236L30.0706 23Z" fill="black"/>
<path d="M40.238 26.218C40.0327 26.0967 39.902 25.966 39.846 25.826C39.79 25.6953 39.762 25.5833 39.762 25.49C39.762 25.2287 39.8553 24.874 40.042 24.426C40.238 23.978 40.4947 23.4693 40.812 22.9C41.1387 22.3213 41.498 21.724 41.89 21.108C41.5447 21.08 41.2507 21.0613 41.008 21.052C40.7653 21.0427 40.5553 21.038 40.378 21.038H39.888C39.9907 20.7673 40.168 20.5807 40.42 20.478C40.6813 20.366 40.9893 20.31 41.344 20.31C41.5027 20.31 41.666 20.3193 41.834 20.338C42.002 20.3567 42.1747 20.38 42.352 20.408C42.828 19.6893 43.3133 18.994 43.808 18.322C44.312 17.6407 44.7787 17.0387 45.208 16.516C45.6467 15.984 46.0107 15.5827 46.3 15.312C46.5707 15.0507 46.7947 14.92 46.972 14.92C47.0747 14.92 47.1867 14.962 47.308 15.046C47.4387 15.1207 47.574 15.228 47.714 15.368C47.6207 15.4427 47.4993 15.6433 47.35 15.97C47.21 16.2873 47.056 16.6887 46.888 17.174C46.7293 17.6593 46.5707 18.1913 46.412 18.77C46.2533 19.3487 46.104 19.9413 45.964 20.548C45.8333 21.1453 45.726 21.7147 45.642 22.256C45.5673 22.7973 45.53 23.2733 45.53 23.684C45.53 24.0387 45.5673 24.314 45.642 24.51C45.726 24.706 45.8613 24.804 46.048 24.804C46.2907 24.804 46.566 24.636 46.874 24.3C47.182 23.964 47.518 23.4413 47.882 22.732L48.022 22.872C47.742 23.6187 47.3827 24.23 46.944 24.706C46.5147 25.182 46.0667 25.42 45.6 25.42C45.2173 25.42 44.9373 25.252 44.76 24.916C44.592 24.5707 44.508 24.1133 44.508 23.544C44.508 23.2453 44.5267 22.9187 44.564 22.564C44.6107 22.2093 44.6713 21.8407 44.746 21.458C44.3353 21.3927 43.9573 21.3413 43.612 21.304C43.276 21.2573 42.9633 21.2153 42.674 21.178C42.2353 21.99 41.806 22.8253 41.386 23.684C40.9753 24.5427 40.5927 25.3873 40.238 26.218ZM44.844 20.968C44.984 20.352 45.1473 19.7313 45.334 19.106C45.5207 18.4713 45.7167 17.8693 45.922 17.3C46.1367 16.7307 46.3373 16.2313 46.524 15.802C46.2347 15.9793 45.8987 16.2967 45.516 16.754C45.1427 17.202 44.746 17.7527 44.326 18.406C43.906 19.05 43.4767 19.7593 43.038 20.534C43.3553 20.5993 43.668 20.674 43.976 20.758C44.2933 20.8327 44.5827 20.9027 44.844 20.968ZM50.0236 25.364C49.7062 25.364 49.4542 25.28 49.2676 25.112C49.0902 24.944 49.0016 24.7247 49.0016 24.454C49.0016 24.174 49.0669 23.88 49.1976 23.572C49.3282 23.264 49.4542 22.9607 49.5756 22.662C49.7062 22.354 49.7716 22.0787 49.7716 21.836C49.7716 21.5373 49.6829 21.318 49.5056 21.178C49.3376 21.0287 49.1649 20.8933 48.9876 20.772C48.7729 21.3227 48.5489 21.8453 48.3156 22.34C48.0822 22.8347 47.8909 23.208 47.7416 23.46L47.6156 23.222C47.7462 22.9793 47.9142 22.6247 48.1196 22.158C48.3342 21.6913 48.5442 21.1593 48.7496 20.562C48.6562 20.4687 48.6096 20.3567 48.6096 20.226C48.6096 19.946 48.6889 19.7173 48.8476 19.54C49.0062 19.3627 49.1229 19.274 49.1976 19.274C49.3002 19.274 49.3562 19.3207 49.3656 19.414C49.3842 19.498 49.3936 19.5633 49.3936 19.61C49.3936 19.6567 49.3656 19.75 49.3096 19.89C49.2629 20.0207 49.2396 20.1 49.2396 20.128C49.2396 20.2587 49.3096 20.38 49.4496 20.492C49.5989 20.5947 49.7669 20.716 49.9536 20.856C50.1402 20.9867 50.3036 21.15 50.4436 21.346C50.5929 21.5327 50.6676 21.7753 50.6676 22.074C50.6676 22.354 50.6069 22.6387 50.4856 22.928C50.3736 23.2173 50.2569 23.4927 50.1356 23.754C50.0236 24.0153 49.9676 24.244 49.9676 24.44C49.9676 24.608 50.0096 24.72 50.0936 24.776C50.1776 24.832 50.2756 24.86 50.3876 24.86C50.6116 24.86 50.8402 24.79 51.0736 24.65C51.3162 24.51 51.5496 24.3327 51.7736 24.118C51.9976 23.9033 52.1982 23.6793 52.3756 23.446C52.5529 23.2033 52.6836 22.9793 52.7676 22.774L52.9496 22.914C52.7722 23.306 52.5296 23.6933 52.2216 24.076C51.9136 24.4493 51.5682 24.7573 51.1856 25C50.8122 25.2427 50.4249 25.364 50.0236 25.364ZM53.6588 25.644C53.2574 25.644 52.9494 25.5273 52.7348 25.294C52.5201 25.0607 52.4127 24.7153 52.4127 24.258C52.4127 23.8473 52.4874 23.3433 52.6368 22.746C52.7954 22.1393 52.9914 21.5187 53.2248 20.884C53.1314 20.8653 53.0428 20.8513 52.9588 20.842C52.8748 20.8233 52.7954 20.8 52.7208 20.772V20.52C52.7954 20.5293 52.8841 20.5387 52.9868 20.548C53.0894 20.5573 53.2061 20.5667 53.3368 20.576C53.5328 20.072 53.7428 19.5867 53.9668 19.12C54.1908 18.644 54.4101 18.224 54.6248 17.86C54.8488 17.4867 55.0588 17.1927 55.2548 16.978C55.4601 16.754 55.6328 16.642 55.7728 16.642C55.8474 16.642 55.9128 16.67 55.9688 16.726C56.0341 16.7727 56.0667 16.8473 56.0667 16.95C56.0667 17.1087 55.9688 17.37 55.7728 17.734C55.5768 18.0887 55.3341 18.5133 55.0448 19.008C54.7554 19.5027 54.4754 20.0393 54.2048 20.618C54.2888 20.618 54.3728 20.618 54.4568 20.618C54.5501 20.618 54.6388 20.618 54.7228 20.618C55.0308 20.618 55.3528 20.6133 55.6888 20.604C56.0341 20.5947 56.3794 20.5713 56.7248 20.534V20.786C56.2114 20.842 55.7494 20.884 55.3388 20.912C54.9374 20.94 54.5781 20.954 54.2608 20.954C54.2234 20.954 54.1861 20.954 54.1488 20.954C54.1208 20.954 54.0881 20.954 54.0508 20.954C53.8361 21.4487 53.6541 21.9573 53.5048 22.48C53.3554 23.0027 53.2808 23.5113 53.2808 24.006C53.2808 24.4073 53.3414 24.6967 53.4628 24.874C53.5841 25.042 53.7848 25.126 54.0648 25.126C54.5501 25.126 55.0261 24.9113 55.4928 24.482C55.9594 24.0527 56.3701 23.4693 56.7248 22.732L56.9068 22.872C56.6828 23.3947 56.3981 23.866 56.0528 24.286C55.7168 24.706 55.3434 25.0373 54.9328 25.28C54.5221 25.5227 54.0974 25.644 53.6588 25.644ZM56.2789 28.92C56.1856 28.92 56.0783 28.8873 55.9569 28.822C55.8356 28.766 55.7329 28.6493 55.6489 28.472C55.5556 28.2947 55.5089 28.0333 55.5089 27.688C55.5089 27.2773 55.5789 26.7407 55.7189 26.078C55.8589 25.4247 56.0503 24.7013 56.2929 23.908C56.5356 23.1147 56.8156 22.3027 57.1329 21.472C57.4503 20.632 57.7909 19.8247 58.1549 19.05C58.5283 18.266 58.9063 17.566 59.2889 16.95C59.6809 16.3247 60.0636 15.83 60.4369 15.466C60.8103 15.102 61.1649 14.92 61.5009 14.92C61.6969 14.92 61.8229 14.9807 61.8789 15.102C61.9443 15.2233 61.9769 15.368 61.9769 15.536C61.9769 15.9373 61.8649 16.376 61.6409 16.852C61.4263 17.328 61.1369 17.8087 60.7729 18.294C60.4089 18.77 60.0076 19.2273 59.5689 19.666C59.1303 20.0953 58.6869 20.464 58.2389 20.772C58.1923 20.884 58.1456 21.0007 58.0989 21.122C58.0616 21.234 58.0196 21.3507 57.9729 21.472C58.0756 21.4907 58.1549 21.5467 58.2109 21.64C58.2763 21.724 58.3136 21.8173 58.3229 21.92C58.3883 22.34 58.4583 22.718 58.5329 23.054C58.6076 23.3807 58.7196 23.6373 58.8689 23.824C59.0276 24.0107 59.2516 24.104 59.5409 24.104C59.8676 24.104 60.1429 23.9873 60.3669 23.754C60.5909 23.5113 60.8336 23.1707 61.0949 22.732L61.3049 22.872C61.0716 23.432 60.7729 23.838 60.4089 24.09C60.0543 24.342 59.7416 24.468 59.4709 24.468C59.3029 24.468 59.1256 24.426 58.9389 24.342C58.7616 24.258 58.5936 24.146 58.4349 24.006C58.4349 24.594 58.3696 25.1773 58.2389 25.756C58.1176 26.3347 57.9543 26.862 57.7489 27.338C57.5436 27.814 57.3149 28.1967 57.0629 28.486C56.8109 28.7753 56.5496 28.92 56.2789 28.92ZM56.6429 28.248C56.7456 28.248 56.8623 28.1547 56.9929 27.968C57.1236 27.7813 57.2496 27.534 57.3709 27.226C57.5016 26.9273 57.6183 26.596 57.7209 26.232C57.8236 25.868 57.9076 25.504 57.9729 25.14C58.0383 24.776 58.0709 24.4493 58.0709 24.16C58.0709 23.8707 58.0336 23.6093 57.9589 23.376C57.8843 23.1333 57.7629 22.8487 57.5949 22.522C57.3616 23.222 57.1516 23.8987 56.9649 24.552C56.7783 25.2053 56.6336 25.7933 56.5309 26.316C56.4283 26.8387 56.3769 27.2587 56.3769 27.576C56.3769 28.024 56.4656 28.248 56.6429 28.248ZM58.4629 20.198C59.0696 19.638 59.5923 19.078 60.0309 18.518C60.4789 17.9487 60.8243 17.4447 61.0669 17.006C61.3096 16.558 61.4309 16.2407 61.4309 16.054C61.4309 15.9233 61.3656 15.858 61.2349 15.858C60.9923 15.858 60.7169 16.0587 60.4089 16.46C60.1009 16.852 59.7789 17.3747 59.4429 18.028C59.1069 18.6813 58.7803 19.4047 58.4629 20.198ZM61.8723 25.42C61.5549 25.42 61.2983 25.28 61.1023 25C60.9156 24.7107 60.8223 24.3793 60.8223 24.006C60.8223 23.7353 60.8643 23.4227 60.9483 23.068C61.0416 22.7133 61.1536 22.3633 61.2843 22.018C61.4149 21.6727 61.5503 21.388 61.6903 21.164C61.8303 20.94 61.9516 20.828 62.0543 20.828C62.1009 20.828 62.1803 20.856 62.2923 20.912C62.4043 20.9587 62.4976 21.024 62.5723 21.108C62.4696 21.2667 62.3436 21.5093 62.1943 21.836C62.0449 22.1627 61.9143 22.5127 61.8023 22.886C61.6903 23.2593 61.6343 23.6047 61.6343 23.922C61.6343 23.9967 61.6436 24.1133 61.6623 24.272C61.6809 24.4213 61.7276 24.5567 61.8023 24.678C61.8769 24.7993 61.9889 24.86 62.1383 24.86C62.3156 24.86 62.4976 24.7713 62.6843 24.594C62.8709 24.4073 63.0576 24.1693 63.2443 23.88C63.4403 23.5907 63.6269 23.278 63.8043 22.942C63.9816 22.606 64.1449 22.284 64.2943 21.976C64.4529 21.668 64.5836 21.4113 64.6863 21.206C64.7423 21.2153 64.8216 21.234 64.9243 21.262C65.0363 21.29 65.1343 21.3273 65.2183 21.374C65.3116 21.4207 65.3583 21.486 65.3583 21.57C65.3583 21.6073 65.3116 21.7333 65.2183 21.948C65.1249 22.1533 65.0129 22.41 64.8823 22.718C64.7609 23.0167 64.6536 23.32 64.5603 23.628C64.4669 23.936 64.4203 24.2067 64.4203 24.44C64.4203 24.608 64.4529 24.7433 64.5183 24.846C64.5929 24.9487 64.7143 25 64.8823 25C65.0783 25 65.3163 24.9113 65.5963 24.734C65.8763 24.5567 66.1609 24.3 66.4503 23.964C66.7396 23.6187 66.9963 23.208 67.2203 22.732L67.4023 22.858C67.2063 23.362 66.9496 23.81 66.6323 24.202C66.3149 24.5847 65.9789 24.8833 65.6243 25.098C65.2696 25.3127 64.9243 25.42 64.5883 25.42C64.3456 25.42 64.1496 25.3733 64.0003 25.28C63.8603 25.1867 63.7576 25.0607 63.6923 24.902C63.6363 24.7433 63.6083 24.5707 63.6083 24.384C63.6083 24.272 63.6176 24.16 63.6363 24.048C63.6549 23.9267 63.6783 23.8053 63.7063 23.684C63.5383 23.992 63.3563 24.2813 63.1603 24.552C62.9643 24.8133 62.7589 25.0233 62.5443 25.182C62.3296 25.3407 62.1056 25.42 61.8723 25.42ZM68.1229 25.42C67.7216 25.42 67.4323 25.28 67.2549 25C67.0869 24.7293 67.0029 24.3887 67.0029 23.978C67.0029 23.53 67.0869 22.998 67.2549 22.382C67.4229 21.766 67.6423 21.1173 67.9129 20.436C68.1929 19.7547 68.4963 19.092 68.8229 18.448C69.1496 17.7947 69.4763 17.202 69.8029 16.67C70.1296 16.138 70.4283 15.7133 70.6989 15.396C70.9789 15.0787 71.1983 14.92 71.3569 14.92C71.4596 14.92 71.5436 14.9807 71.6089 15.102C71.6743 15.214 71.7256 15.354 71.7629 15.522C71.8003 15.6807 71.8189 15.8253 71.8189 15.956C71.8189 16.208 71.7536 16.5393 71.6229 16.95C71.5016 17.3513 71.3243 17.804 71.0909 18.308C70.8669 18.8027 70.5963 19.3067 70.2789 19.82C69.9709 20.324 69.6303 20.8093 69.2569 21.276C68.8929 21.7427 68.5056 22.144 68.0949 22.48C68.0389 22.732 67.9923 22.9793 67.9549 23.222C67.9269 23.4553 67.9129 23.6793 67.9129 23.894C67.9129 24.258 67.9643 24.5287 68.0669 24.706C68.1696 24.8833 68.3236 24.972 68.5289 24.972C68.7809 24.972 69.0283 24.86 69.2709 24.636C69.5229 24.412 69.7563 24.132 69.9709 23.796C70.1949 23.4507 70.3863 23.096 70.5449 22.732L70.7549 22.844C70.3816 23.6373 69.9756 24.2673 69.5369 24.734C69.0983 25.1913 68.6269 25.42 68.1229 25.42ZM68.2209 22.004C68.5476 21.6773 68.8649 21.304 69.1729 20.884C69.4809 20.4547 69.7656 20.0113 70.0269 19.554C70.2976 19.0967 70.5356 18.6533 70.7409 18.224C70.9463 17.7947 71.1049 17.412 71.2169 17.076C71.3289 16.7307 71.3849 16.4647 71.3849 16.278C71.3849 16.1847 71.3709 16.124 71.3429 16.096C71.3243 16.068 71.3056 16.054 71.2869 16.054C71.2123 16.054 71.0816 16.1753 70.8949 16.418C70.7176 16.6513 70.5076 16.9687 70.2649 17.37C70.0223 17.7713 69.7749 18.2287 69.5229 18.742C69.2709 19.2553 69.0283 19.792 68.7949 20.352C68.5709 20.912 68.3796 21.4627 68.2209 22.004ZM76.8883 26.218C76.3563 26.218 75.8896 26.0733 75.4883 25.784C75.0869 25.504 74.7696 25.1027 74.5363 24.58C74.3123 24.0573 74.2003 23.446 74.2003 22.746C74.2003 22.0273 74.3123 21.2993 74.5363 20.562C74.7696 19.8247 75.0823 19.12 75.4743 18.448C75.8663 17.776 76.3096 17.1787 76.8043 16.656C77.2989 16.124 77.8216 15.704 78.3723 15.396C78.9229 15.088 79.4643 14.934 79.9963 14.934C80.1736 14.934 80.3323 14.948 80.4723 14.976C80.6123 15.004 80.7336 15.046 80.8363 15.102C80.7616 15.102 80.7149 15.102 80.6963 15.102C80.6869 15.102 80.6776 15.102 80.6683 15.102C80.1829 15.102 79.6929 15.2653 79.1983 15.592C78.7036 15.9093 78.2323 16.3433 77.7843 16.894C77.3363 17.4353 76.9349 18.0467 76.5803 18.728C76.2256 19.4 75.9456 20.1 75.7403 20.828C75.5349 21.556 75.4323 22.2607 75.4323 22.942C75.4323 23.4367 75.4929 23.8987 75.6143 24.328C75.7449 24.7573 75.9503 25.098 76.2303 25.35C76.5103 25.6113 76.8696 25.742 77.3083 25.742C77.8309 25.742 78.3209 25.5787 78.7783 25.252C79.2356 24.9347 79.6463 24.5007 80.0103 23.95C80.3836 23.3993 80.7009 22.788 80.9623 22.116C81.2329 21.4347 81.4383 20.7347 81.5783 20.016C81.7276 19.288 81.8023 18.5927 81.8023 17.93C81.8023 17.6687 81.7836 17.3887 81.7463 17.09C81.7089 16.7913 81.6436 16.5347 81.5503 16.32C81.4569 16.1053 81.3309 15.998 81.1723 15.998C81.0043 15.998 80.8223 16.1053 80.6263 16.32C80.4303 16.5253 80.2389 16.7867 80.0523 17.104C79.8749 17.4213 79.7163 17.7527 79.5763 18.098C79.4363 18.434 79.3383 18.7327 79.2823 18.994C79.0489 18.938 78.8763 18.8493 78.7643 18.728C78.6616 18.5973 78.6103 18.4573 78.6103 18.308C78.6103 18.056 78.6943 17.7807 78.8623 17.482C79.0396 17.174 79.2589 16.88 79.5203 16.6C79.7909 16.3107 80.0709 16.0773 80.3603 15.9C80.6496 15.7133 80.9109 15.62 81.1443 15.62C81.3869 15.62 81.5829 15.7087 81.7323 15.886C81.8909 16.0633 82.0123 16.292 82.0963 16.572C82.1896 16.8427 82.2503 17.1367 82.2783 17.454C82.3156 17.762 82.3343 18.0513 82.3343 18.322C82.3343 19.3393 82.2176 20.268 81.9843 21.108C81.7603 21.9387 81.4523 22.6713 81.0603 23.306C80.6776 23.9407 80.2483 24.4773 79.7723 24.916C79.2963 25.3453 78.8063 25.6673 78.3023 25.882C77.8076 26.106 77.3363 26.218 76.8883 26.218ZM83.1642 25.658C82.8749 25.658 82.6322 25.56 82.4362 25.364C82.2309 25.1773 82.1282 24.888 82.1282 24.496C82.1282 24.16 82.2029 23.8007 82.3522 23.418C82.5015 23.026 82.7069 22.6433 82.9682 22.27C83.2295 21.8873 83.5235 21.542 83.8502 21.234C84.1862 20.9167 84.5362 20.6647 84.9002 20.478C85.2735 20.2913 85.6422 20.198 86.0062 20.198C86.3702 20.198 86.6735 20.296 86.9162 20.492C87.1589 20.6787 87.2802 20.9307 87.2802 21.248C87.2802 21.4813 87.2149 21.64 87.0842 21.724C86.9629 21.808 86.7995 21.85 86.5942 21.85C86.6129 21.7753 86.6269 21.696 86.6362 21.612C86.6549 21.5187 86.6642 21.4347 86.6642 21.36C86.6642 21.1453 86.6129 20.9633 86.5102 20.814C86.4075 20.6553 86.2302 20.576 85.9782 20.576C85.7169 20.576 85.4509 20.6693 85.1802 20.856C84.9095 21.0333 84.6482 21.276 84.3962 21.584C84.1442 21.8827 83.9202 22.2093 83.7242 22.564C83.5282 22.9187 83.3742 23.2687 83.2622 23.614C83.1502 23.9593 83.0942 24.2673 83.0942 24.538C83.0942 24.902 83.2202 25.084 83.4722 25.084C83.6869 25.084 83.9202 24.986 84.1722 24.79C84.4242 24.5847 84.6809 24.328 84.9422 24.02C85.2129 23.7027 85.4695 23.376 85.7122 23.04C85.9549 22.704 86.1695 22.396 86.3562 22.116C86.3935 22.06 86.4169 22.032 86.4262 22.032C86.4822 22.0413 86.5522 22.06 86.6362 22.088C86.7295 22.116 86.8089 22.1533 86.8742 22.2C86.9395 22.2467 86.9722 22.3073 86.9722 22.382C86.9722 22.466 86.9302 22.5827 86.8462 22.732C86.7622 22.872 86.6689 23.0353 86.5662 23.222C86.4635 23.4087 86.3702 23.6 86.2862 23.796C86.2022 23.9827 86.1602 24.16 86.1602 24.328C86.1602 24.468 86.1975 24.608 86.2722 24.748C86.3469 24.8787 86.4682 24.944 86.6362 24.944C86.8882 24.944 87.2195 24.762 87.6302 24.398C88.0409 24.0247 88.4562 23.4693 88.8762 22.732L89.0162 22.872C88.8202 23.376 88.5682 23.8193 88.2602 24.202C87.9522 24.5847 87.6209 24.8833 87.2662 25.098C86.9209 25.3127 86.5802 25.42 86.2442 25.42C85.8989 25.42 85.6422 25.3173 85.4742 25.112C85.3155 24.9067 85.2362 24.6827 85.2362 24.44C85.2362 24.384 85.2409 24.3233 85.2502 24.258C85.2595 24.1833 85.2689 24.1087 85.2782 24.034C84.8769 24.5753 84.5082 24.9813 84.1722 25.252C83.8455 25.5227 83.5095 25.658 83.1642 25.658ZM90.0598 25.714C89.6212 25.714 89.2712 25.616 89.0098 25.42C88.7578 25.2333 88.5805 25 88.4778 24.72C88.3658 24.44 88.3098 24.16 88.3098 23.88C88.3098 23.6 88.3472 23.3853 88.4218 23.236C88.4965 23.0867 88.5852 22.9747 88.6878 22.9C88.7998 22.8253 88.9025 22.7693 88.9958 22.732C89.0985 22.6947 89.1685 22.6573 89.2058 22.62C89.4858 22.312 89.7425 21.99 89.9758 21.654C90.2092 21.318 90.4145 20.9633 90.5918 20.59V20.422C90.5918 20.0767 90.6478 19.834 90.7598 19.694C90.8812 19.5447 91.0072 19.47 91.1378 19.47C91.2125 19.47 91.2685 19.4887 91.3058 19.526C91.3432 19.5633 91.3618 19.6053 91.3618 19.652C91.3618 19.6987 91.3478 19.7733 91.3198 19.876C91.2918 19.9787 91.2778 20.1093 91.2778 20.268C91.2778 20.576 91.3385 20.912 91.4598 21.276C91.5812 21.6307 91.7025 22.0087 91.8238 22.41C91.9452 22.802 92.0058 23.2127 92.0058 23.642C92.0058 23.7633 91.9965 23.8847 91.9778 24.006C91.9685 24.118 91.9498 24.2253 91.9218 24.328C92.2485 24.272 92.5565 24.1273 92.8458 23.894C93.1352 23.6513 93.4152 23.2687 93.6858 22.746L93.8118 22.886C93.6345 23.3993 93.3685 23.7913 93.0138 24.062C92.6592 24.3233 92.2718 24.4867 91.8518 24.552C91.7025 24.9533 91.4645 25.2473 91.1378 25.434C90.8205 25.6207 90.4612 25.714 90.0598 25.714ZM90.0878 25.224C90.1998 25.224 90.3492 25.1867 90.5358 25.112C90.7225 25.0373 90.8672 24.846 90.9698 24.538C90.5778 24.4633 90.2278 24.3093 89.9198 24.076C89.6212 23.8427 89.3972 23.6093 89.2478 23.376C89.0425 23.3853 88.9398 23.5487 88.9398 23.866C88.9398 24.202 89.0378 24.5147 89.2338 24.804C89.4392 25.084 89.7238 25.224 90.0878 25.224ZM91.0398 24.314C91.0585 24.2207 91.0725 24.1227 91.0818 24.02C91.0912 23.9173 91.0958 23.796 91.0958 23.656C91.0958 23.2173 91.0398 22.7833 90.9278 22.354C90.8252 21.9153 90.7365 21.5047 90.6618 21.122C90.4472 21.4767 90.2185 21.8173 89.9758 22.144C89.7425 22.4613 89.5185 22.7273 89.3038 22.942C89.4438 23.2407 89.6585 23.5207 89.9478 23.782C90.2465 24.0433 90.6105 24.2207 91.0398 24.314ZM94.424 25.364C94.06 25.364 93.7893 25.2473 93.612 25.014C93.4347 24.79 93.346 24.5147 93.346 24.188C93.346 23.9733 93.3833 23.7027 93.458 23.376C93.542 23.0493 93.6493 22.7087 93.78 22.354C93.9107 21.99 94.06 21.6493 94.228 21.332C94.4053 21.0147 94.592 20.758 94.788 20.562C94.984 20.3567 95.1753 20.254 95.362 20.254C95.446 20.254 95.516 20.282 95.572 20.338C95.6373 20.3847 95.67 20.4593 95.67 20.562C95.67 20.674 95.5953 20.856 95.446 21.108C95.306 21.36 95.138 21.6493 94.942 21.976C94.746 22.3027 94.5733 22.648 94.424 23.012C94.284 23.3667 94.214 23.7073 94.214 24.034C94.214 24.37 94.27 24.594 94.382 24.706C94.494 24.818 94.6667 24.874 94.9 24.874C95.2173 24.874 95.5533 24.7153 95.908 24.398C96.272 24.0807 96.6547 23.5253 97.056 22.732L97.182 22.872C96.9113 23.6747 96.5193 24.2907 96.006 24.72C95.502 25.1493 94.9747 25.364 94.424 25.364ZM96.104 18.952C95.9547 18.952 95.8193 18.9147 95.698 18.84C95.586 18.7653 95.53 18.6487 95.53 18.49C95.53 18.294 95.642 18.126 95.866 17.986C96.0993 17.8367 96.328 17.762 96.552 17.762C96.692 17.762 96.804 17.7947 96.888 17.86C96.972 17.9253 97.014 18.0373 97.014 18.196C97.014 18.3733 96.916 18.546 96.72 18.714C96.5333 18.8727 96.328 18.952 96.104 18.952ZM98.263 25.714C97.8243 25.714 97.4743 25.616 97.213 25.42C96.961 25.2333 96.7836 25 96.681 24.72C96.569 24.44 96.513 24.16 96.513 23.88C96.513 23.6 96.5503 23.3853 96.625 23.236C96.6996 23.0867 96.7883 22.9747 96.891 22.9C97.003 22.8253 97.1056 22.7693 97.199 22.732C97.3016 22.6947 97.3716 22.6573 97.409 22.62C97.689 22.312 97.9456 21.99 98.179 21.654C98.4123 21.318 98.6176 20.9633 98.795 20.59V20.422C98.795 20.0767 98.851 19.834 98.963 19.694C99.0843 19.5447 99.2103 19.47 99.341 19.47C99.4156 19.47 99.4716 19.4887 99.509 19.526C99.5463 19.5633 99.565 19.6053 99.565 19.652C99.565 19.6987 99.551 19.7733 99.523 19.876C99.495 19.9787 99.481 20.1093 99.481 20.268C99.481 20.576 99.5416 20.912 99.663 21.276C99.7843 21.6307 99.9056 22.0087 100.027 22.41C100.148 22.802 100.209 23.2127 100.209 23.642C100.209 23.7633 100.2 23.8847 100.181 24.006C100.172 24.118 100.153 24.2253 100.125 24.328C100.452 24.272 100.76 24.1273 101.049 23.894C101.338 23.6513 101.618 23.2687 101.889 22.746L102.015 22.886C101.838 23.3993 101.572 23.7913 101.217 24.062C100.862 24.3233 100.475 24.4867 100.055 24.552C99.9056 24.9533 99.6676 25.2473 99.341 25.434C99.0236 25.6207 98.6643 25.714 98.263 25.714ZM98.291 25.224C98.403 25.224 98.5523 25.1867 98.739 25.112C98.9256 25.0373 99.0703 24.846 99.173 24.538C98.781 24.4633 98.431 24.3093 98.123 24.076C97.8243 23.8427 97.6003 23.6093 97.451 23.376C97.2456 23.3853 97.143 23.5487 97.143 23.866C97.143 24.202 97.241 24.5147 97.437 24.804C97.6423 25.084 97.927 25.224 98.291 25.224ZM99.243 24.314C99.2616 24.2207 99.2756 24.1227 99.285 24.02C99.2943 23.9173 99.299 23.796 99.299 23.656C99.299 23.2173 99.243 22.7833 99.131 22.354C99.0283 21.9153 98.9396 21.5047 98.865 21.122C98.6503 21.4767 98.4216 21.8173 98.179 22.144C97.9456 22.4613 97.7216 22.7273 97.507 22.942C97.647 23.2407 97.8616 23.5207 98.151 23.782C98.4496 24.0433 98.8136 24.2207 99.243 24.314Z" fill="black"/>
</svg>
