<svg width="25" height="25" viewBox="0 0 15 15" fill="none" xmlns="http://www.w3.org/2000/svg">
<path fill-rule="evenodd" clip-rule="evenodd" d="M4.7175 13.4998C10.3778 13.4998 13.4738 8.88252 13.4738 4.87887C13.4738 4.74744 13.4737 4.61699 13.4647 4.48703C14.067 4.05875 14.5868 3.52699 15 2.91855C14.439 3.1637 13.8427 3.32447 13.233 3.39535C13.875 3.01655 14.3558 2.42143 14.586 1.71921C13.9815 2.07216 13.3207 2.32127 12.6315 2.45492C11.466 1.23507 9.51675 1.17597 8.277 2.32345C7.47825 3.06334 7.1385 4.16649 7.38675 5.21872C4.9125 5.09615 2.607 3.94573 1.044 2.05319C0.22725 3.4377 0.645 5.20822 1.99725 6.09726C1.5075 6.08323 1.02825 5.95341 0.6 5.7186V5.75705C0.60075 7.19916 1.6335 8.4409 3.069 8.72665C2.616 8.84849 2.1405 8.86616 1.68 8.77829C2.08275 10.0129 3.2385 10.8585 4.55475 10.8829C3.465 11.7262 2.11875 12.1841 0.73275 12.1826C0.48825 12.1818 0.24375 12.1678 0 12.139C1.40775 13.028 3.045 13.4999 4.7175 13.4976" fill="black"/>
</svg>
